MerriweatherSansExtraBold-Italic.ufo
<glyph name="three" format="1">
  <advance width="1168"/>
  <unicode hex="0033"/>
  <outline>
    <contour>
      <point x="80" y="-67" type="curve"/>
      <point x="47" y="-314" type="line"/>
      <point x="112" y="-322"/>
      <point x="167" y="-326"/>
      <point x="215" y="-326" type="curve" smooth="yes"/>
      <point x="685" y="-326"/>
      <point x="1018" y="-151"/>
      <point x="1018" y="157" type="curve" smooth="yes"/>
      <point x="1018" y="302"/>
      <point x="888" y="448"/>
      <point x="662" y="455" type="curve"/>
      <point x="888" y="523"/>
      <point x="1023" y="684"/>
      <point x="1023" y="865" type="curve" smooth="yes"/>
      <point x="1023" y="1061"/>
      <point x="835" y="1156"/>
      <point x="622" y="1156" type="curve" smooth="yes"/>
      <point x="409" y="1156"/>
      <point x="217" y="1067"/>
      <point x="152" y="1002" type="curve"/>
      <point x="250" y="795" type="line"/>
      <point x="329" y="860"/>
      <point x="435" y="895"/>
      <point x="506" y="895" type="curve" smooth="yes"/>
      <point x="620" y="895"/>
      <point x="662" y="856"/>
      <point x="662" y="776" type="curve" smooth="yes"/>
      <point x="662" y="654"/>
      <point x="482" y="572"/>
      <point x="299" y="550" type="curve"/>
      <point x="271" y="293" type="line"/>
      <point x="458" y="331" type="line"/>
      <point x="595" y="326"/>
      <point x="639" y="240"/>
      <point x="639" y="170" type="curve" smooth="yes"/>
      <point x="639" y="14"/>
      <point x="511" y="-77"/>
      <point x="214" y="-77" type="curve" smooth="yes"/>
      <point x="177" y="-77"/>
      <point x="129" y="-73"/>
    </contour>
  </outline>
</glyph>
<glyph name="four" format="1">
  <advance width="1304"/>
  <unicode hex="0034"/>
  <outline>
    <contour>
      <point x="1" y="164" type="curve"/>
      <point x="79" y="0" type="line"/>
      <point x="675" y="0" type="line"/>
      <point x="626" y="-375" type="line"/>
      <point x="955" y="-375" type="line"/>
      <point x="1002" y="0" type="line"/>
      <point x="1202" y="0" type="line"/>
      <point x="1239" y="261" type="line"/>
      <point x="1038" y="247" type="line"/>
      <point x="1085" y="649" type="line"/>
      <point x="762" y="614" type="line"/>
      <point x="710" y="239" type="line"/>
      <point x="345" y="222" type="line"/>
      <point x="424" y="333" type="line"/>
      <point x="934" y="1167" type="line"/>
      <point x="852" y="1256" type="line"/>
      <point x="555" y="1256" type="line"/>
      <point x="395" y="895"/>
      <point x="183" y="530"/>
    </contour>
  </outline>
</glyph>
<glyph name="six" format="1">
  <advance width="1293"/>
  <unicode hex="0036"/>
  <outline>
    <contour>
      <point x="111" y="513" type="curve" smooth="yes"/>
      <point x="111" y="216"/>
      <point x="254" y="-16"/>
      <point x="601" y="-16" type="curve" smooth="yes"/>
      <point x="1035" y="-16"/>
      <point x="1196" y="315"/>
      <point x="1196" y="607" type="curve" smooth="yes"/>
      <point x="1196" y="832"/>
      <point x="1081" y="1037"/>
      <point x="834" y="1037" type="curve" smooth="yes"/>
      <point x="756" y="1037"/>
      <point x="623" y="1015"/>
      <point x="553" y="970" type="curve"/>
      <point x="577" y="1046"/>
      <point x="787" y="1310"/>
      <point x="1095" y="1414" type="curve"/>
      <point x="1016" y="1625" type="line"/>
      <point x="483" y="1495"/>
      <point x="111" y="1007"/>
    </contour>
    <contour>
      <point x="439" y="527" type="curve" smooth="yes"/>
      <point x="439" y="581"/>
      <point x="454" y="651"/>
      <point x="474" y="710" type="curve"/>
      <point x="501" y="745"/>
      <point x="588" y="791"/>
      <point x="683" y="791" type="curve" smooth="yes"/>
      <point x="778" y="791"/>
      <point x="861" y="728"/>
      <point x="861" y="574" type="curve" smooth="yes"/>
      <point x="861" y="438"/>
      <point x="805" y="222"/>
      <point x="630" y="222" type="curve" smooth="yes"/>
      <point x="528" y="222"/>
      <point x="439" y="328"/>
    </contour>
  </outline>
</glyph>
<glyph name="less" format="1">
  <advance width="1395"/>
  <unicode hex="003C"/>
  <outline>
    <contour>
      <point x="199" y="700" type="line"/>
      <point x="1107" y="180" type="line"/>
      <point x="1133" y="463" type="line"/>
      <point x="585" y="753" type="line"/>
      <point x="1207" y="1039" type="line"/>
      <point x="1244" y="1350" type="line"/>
      <point x="215" y="830" type="line"/>
    </contour>
  </outline>
</glyph>
<glyph name="question" format="1">
  <advance width="1060"/>
  <unicode hex="003F"/>
  <outline>
    <contour>
      <point x="348" y="464" type="curve"/>
      <point x="365" y="463" type="line"/>
      <point x="532" y="529" type="line"/>
      <point x="525" y="554"/>
      <point x="491" y="602"/>
      <point x="491" y="650" type="curve" smooth="yes"/>
      <point x="491" y="891"/>
      <point x="1082" y="862"/>
      <point x="1082" y="1347" type="curve" smooth="yes"/>
      <point x="1082" y="1592"/>
      <point x="910" y="1778"/>
      <point x="521" y="1778" type="curve" smooth="yes"/>
      <point x="442" y="1778"/>
      <point x="340" y="1755"/>
      <point x="306" y="1725" type="curve"/>
      <point x="250" y="1495" type="line"/>
      <point x="321" y="1513"/>
      <point x="385" y="1518"/>
      <point x="457" y="1518" type="curve" smooth="yes"/>
      <point x="645" y="1518"/>
      <point x="761" y="1422"/>
      <point x="761" y="1310" type="curve" smooth="yes"/>
      <point x="761" y="1260"/>
      <point x="745" y="1203"/>
      <point x="738" y="1183" type="curve"/>
      <point x="710" y="1138"/>
      <point x="632" y="1074"/>
      <point x="477" y="1005" type="curve" smooth="yes"/>
      <point x="270" y="902"/>
      <point x="225" y="826"/>
      <point x="225" y="707" type="curve" smooth="yes"/>
      <point x="225" y="615"/>
      <point x="289" y="505"/>
    </contour>
    <contour>
      <point x="327" y="123" type="curve" smooth="yes"/>
      <point x="327" y="34"/>
      <point x="386" y="-29"/>
      <point x="483" y="-29" type="curve" smooth="yes"/>
      <point x="612" y="-29"/>
      <point x="696" y="58"/>
      <point x="696" y="189" type="curve" smooth="yes"/>
      <point x="696" y="269"/>
      <point x="653" y="338"/>
      <point x="535" y="338" type="curve" smooth="yes"/>
      <point x="406" y="338"/>
      <point x="327" y="235"/>
    </contour>
  </outline>
</glyph>
<glyph name="at" format="1">
  <advance width="2028"/>
  <unicode hex="0040"/>
  <outline>
    <contour>
      <point x="102" y="374" type="curve" smooth="yes"/>
      <point x="102" y="-143"/>
      <point x="454" y="-440"/>
      <point x="939" y="-440" type="curve" smooth="yes"/>
      <point x="1110" y="-440"/>
      <point x="1273" y="-394"/>
      <point x="1365" y="-324" type="curve"/>
      <point x="1306" y="-153" type="line"/>
      <point x="1244" y="-183"/>
      <point x="1147" y="-221"/>
      <point x="961" y="-221" type="curve" smooth="yes"/>
      <point x="640" y="-221"/>
      <point x="346" y="-56"/>
      <point x="346" y="418" type="curve" smooth="yes"/>
      <point x="346" y="879"/>
      <point x="662" y="1348"/>
      <point x="1175" y="1348" type="curve" smooth="yes"/>
      <point x="1464" y="1348"/>
      <point x="1712" y="1246"/>
      <point x="1712" y="860" type="curve" smooth="yes"/>
      <point x="1712" y="555"/>
      <point x="1585" y="223"/>
      <point x="1436" y="223" type="curve" smooth="yes"/>
      <point x="1427" y="223"/>
      <point x="1423" y="232"/>
      <point x="1423" y="249" type="curve" smooth="yes"/>
      <point x="1423" y="287"/>
      <point x="1429" y="297"/>
      <point x="1440" y="400" type="curve" smooth="yes"/>
      <point x="1459" y="601"/>
      <point x="1490" y="935"/>
      <point x="1529" y="1088" type="curve"/>
      <point x="1334" y="1058" type="line"/>
      <point x="1278" y="1097"/>
      <point x="1169" y="1112"/>
      <point x="1114" y="1112" type="curve" smooth="yes"/>
      <point x="744" y="1112"/>
      <point x="550" y="765"/>
      <point x="544" y="444" type="curve" smooth="yes"/>
      <point x="538" y="147"/>
      <point x="717" y="7"/>
      <point x="852" y="7" type="curve" smooth="yes"/>
      <point x="1000" y="7"/>
      <point x="1130" y="158"/>
      <point x="1220" y="371" type="curve"/>
      <point x="1214" y="312"/>
      <point x="1208" y="212"/>
      <point x="1208" y="165" type="curve" smooth="yes"/>
      <point x="1208" y="76"/>
      <point x="1248" y="11"/>
      <point x="1328" y="11" type="curve" smooth="yes"/>
      <point x="1617" y="11"/>
      <point x="1967" y="338"/>
      <point x="1967" y="909" type="curve" smooth="yes"/>
      <point x="1967" y="1297"/>
      <point x="1680" y="1545"/>
      <point x="1226" y="1545" type="curve" smooth="yes"/>
      <point x="601" y="1545"/>
      <point x="102" y="1098"/>
    </contour>
    <contour>
      <point x="840" y="484" type="curve" smooth="yes"/>
      <point x="840" y="643"/>
      <point x="916" y="883"/>
      <point x="1073" y="883" type="curve" smooth="yes"/>
      <point x="1111" y="883"/>
      <point x="1169" y="872"/>
      <point x="1198" y="840" type="curve"/>
      <point x="1177" y="675"/>
      <point x="1020" y="296"/>
      <point x="926" y="296" type="curve" smooth="yes"/>
      <point x="855" y="296"/>
      <point x="840" y="376"/>
    </contour>
  </outline>
</glyph>
<glyph name="A" format="1">
  <advance width="1345"/>
  <unicode hex="0041"/>
  <outline>
    <contour>
      <point x="-123" y="-1" type="line"/>
      <point x="267" y="0" type="line"/>
      <point x="758" y="1202" type="line"/>
      <point x="797" y="1321" type="line"/>
      <point x="803" y="1202" type="line"/>
      <point x="939" y="-1" type="line"/>
      <point x="1294" y="0" type="line"/>
      <point x="1067" y="1530" type="line"/>
      <point x="617" y="1530" type="line"/>
    </contour>
    <contour>
      <point x="294" y="286" type="line"/>
      <point x="1023" y="286" type="line"/>
      <point x="1028" y="527" type="line"/>
      <point x="298" y="527" type="line"/>
    </contour>
    <contour>
      <point x="603" y="-168" type="move" name="btm"/>
    </contour>
    <contour>
      <point x="812" y="1700" type="move" name="top"/>
    </contour>
  </outline>
</glyph>
<glyph name="C" format="1">
  <advance width="1192"/>
  <unicode hex="0043"/>
  <outline>
    <contour>
      <point x="83" y="624" type="curve" smooth="yes"/>
      <point x="83" y="306"/>
      <point x="208" y="-16"/>
      <point x="625" y="-16" type="curve" smooth="yes"/>
      <point x="842" y="-16"/>
      <point x="1031" y="80"/>
      <point x="1073" y="112" type="curve"/>
      <point x="1027" y="361" type="line"/>
      <point x="975" y="323"/>
      <point x="848" y="271"/>
      <point x="719" y="271" type="curve" smooth="yes"/>
      <point x="521" y="271"/>
      <point x="444" y="386"/>
      <point x="444" y="625" type="curve" smooth="yes"/>
      <point x="444" y="929"/>
      <point x="558" y="1247"/>
      <point x="858" y="1247" type="curve" smooth="yes"/>
      <point x="1008" y="1247"/>
      <point x="1104" y="1177"/>
      <point x="1145" y="1141" type="curve"/>
      <point x="1247" y="1476" type="line"/>
      <point x="1194" y="1490" type="line"/>
      <point x="1143" y="1511"/>
      <point x="1049" y="1546"/>
      <point x="895" y="1546" type="curve" smooth="yes"/>
      <point x="414" y="1546"/>
      <point x="83" y="1123"/>
    </contour>
    <contour>
      <point x="597" y="-168" type="move" name="btm"/>
    </contour>
    <contour>
      <point x="849" y="1700" type="move" name="top"/>
    </contour>
  </outline>
</glyph>
<glyph name="D" format="1">
  <advance width="1423"/>
  <unicode hex="0044"/>
  <outline>
    <contour>
      <point x="216" y="0" type="line"/>
      <point x="279" y="0"/>
      <point x="356" y="-5"/>
      <point x="425" y="-9" type="curve" smooth="yes"/>
      <point x="481" y="-13"/>
      <point x="532" y="-16"/>
      <point x="569" y="-16" type="curve" smooth="yes"/>
      <point x="1143" y="-16"/>
      <point x="1415" y="437"/>
      <point x="1415" y="932" type="curve" smooth="yes"/>
      <point x="1415" y="1297"/>
      <point x="1257" y="1546"/>
      <point x="834" y="1546" type="curve" smooth="yes"/>
      <point x="742" y="1546"/>
      <point x="532" y="1530"/>
      <point x="447" y="1530" type="curve"/>
      <point x="585" y="1266" type="line"/>
      <point x="613" y="1277"/>
      <point x="709" y="1285"/>
      <point x="761" y="1285" type="curve" smooth="yes"/>
      <point x="960" y="1285"/>
      <point x="1051" y="1215"/>
      <point x="1051" y="937" type="curve" smooth="yes"/>
      <point x="1051" y="560"/>
      <point x="914" y="243"/>
      <point x="619" y="243" type="curve" smooth="yes"/>
      <point x="544" y="243"/>
      <point x="478" y="256"/>
      <point x="438" y="275" type="curve"/>
    </contour>
    <contour>
      <point x="72" y="0" type="line"/>
      <point x="426" y="0" type="line"/>
      <point x="645" y="1530" type="line"/>
      <point x="291" y="1530" type="line"/>
    </contour>
    <contour>
      <point x="955" y="-168" type="move" name="btm"/>
    </contour>
    <contour>
      <point x="848" y="1700" type="move" name="top"/>
    </contour>
  </outline>
</glyph>
<glyph name="G" format="1">
  <advance width="1427"/>
  <unicode hex="0047"/>
  <outline>
    <contour>
      <point x="74" y="607" type="curve" smooth="yes"/>
      <point x="73" y="307"/>
      <point x="222" y="-16"/>
      <point x="677" y="-16" type="curve" smooth="yes"/>
      <point x="861" y="-16"/>
      <point x="1013" y="26"/>
      <point x="1119" y="56" type="curve" smooth="yes"/>
      <point x="1176" y="72"/>
      <point x="1202" y="76"/>
      <point x="1228" y="79" type="curve"/>
      <point x="1335" y="850" type="line"/>
      <point x="759" y="850" type="line"/>
      <point x="726" y="570" type="line"/>
      <point x="974" y="570" type="line"/>
      <point x="909" y="153" type="line"/>
      <point x="951" y="296" type="line"/>
      <point x="913" y="260"/>
      <point x="787" y="249"/>
      <point x="730" y="249" type="curve" smooth="yes"/>
      <point x="527" y="249"/>
      <point x="432" y="384"/>
      <point x="433" y="628" type="curve" smooth="yes"/>
      <point x="435" y="911"/>
      <point x="542" y="1257"/>
      <point x="876" y="1257" type="curve" smooth="yes"/>
      <point x="1062" y="1257"/>
      <point x="1227" y="1171"/>
      <point x="1274" y="1135" type="curve"/>
      <point x="1348" y="1457" type="line"/>
      <point x="1253" y="1490" type="line"/>
      <point x="1189" y="1511"/>
      <point x="1074" y="1546"/>
      <point x="884" y="1546" type="curve" smooth="yes"/>
      <point x="434" y="1546"/>
      <point x="73" y="1167"/>
    </contour>
    <contour>
      <point x="714" y="-170" type="move" name="btm"/>
    </contour>
    <contour>
      <point x="907" y="1700" type="move" name="top"/>
    </contour>
  </outline>
</glyph>
<glyph name="H" format="1">
  <advance width="1500"/>
  <unicode hex="0048"/>
  <outline>
    <contour>
      <point x="60" y="0" type="line"/>
      <point x="414" y="0" type="line"/>
      <point x="633" y="1530" type="line"/>
      <point x="279" y="1530" type="line"/>
    </contour>
    <contour>
      <point x="896" y="0" type="line"/>
      <point x="1254" y="0" type="line"/>
      <point x="1473" y="1530" type="line"/>
      <point x="1115" y="1530" type="line"/>
    </contour>
    <contour>
      <point x="419" y="622" type="line"/>
      <point x="1148" y="622" type="line"/>
      <point x="1153" y="866" type="line"/>
      <point x="423" y="866" type="line"/>
    </contour>
    <contour>
      <point x="863" y="-168" type="move" name="btm"/>
    </contour>
    <contour>
      <point x="858" y="1700" type="move" name="top"/>
    </contour>
  </outline>
</glyph>
<glyph name="I" format="1">
  <advance width="706"/>
  <unicode hex="0049"/>
  <outline>
    <contour>
      <point x="98" y="0" type="line"/>
      <point x="452" y="0" type="line"/>
      <point x="671" y="1530" type="line"/>
      <point x="317" y="1530" type="line"/>
    </contour>
    <contour>
      <point x="280" y="-168" type="move" name="btm"/>
    </contour>
    <contour>
      <point x="491" y="1700" type="move" name="top"/>
    </contour>
  </outline>
</glyph>
<glyph name="J" format="1">
  <advance width="697"/>
  <unicode hex="004A"/>
  <outline>
    <contour>
      <point x="103" y="86" type="curve" smooth="yes"/>
      <point x="80" y="-45"/>
      <point x="-7" y="-196"/>
      <point x="-180" y="-239" type="curve"/>
      <point x="-136" y="-357" type="line"/>
      <point x="101" y="-357"/>
      <point x="365" y="-266"/>
      <point x="450" y="75" type="curve" smooth="yes"/>
      <point x="477" y="173"/>
      <point x="565" y="849"/>
      <point x="667" y="1530" type="curve"/>
      <point x="311" y="1530" type="line"/>
      <point x="250" y="1095"/>
      <point x="183" y="478"/>
    </contour>
    <contour>
      <point x="340" y="-168" type="move" name="btm"/>
    </contour>
    <contour>
      <point x="469" y="1700" type="move" name="top"/>
    </contour>
  </outline>
</glyph>
<glyph name="K" format="1">
  <advance width="1337"/>
  <unicode hex="004B"/>
  <outline>
    <contour>
      <point x="72" y="0" type="line"/>
      <point x="426" y="0" type="line"/>
      <point x="645" y="1530" type="line"/>
      <point x="291" y="1530" type="line"/>
    </contour>
    <contour>
      <point x="767" y="306" type="line"/>
      <point x="832" y="157"/>
      <point x="890" y="26"/>
      <point x="907" y="1" type="curve"/>
      <point x="1324" y="-1" type="line"/>
      <point x="1263" y="96"/>
      <point x="1199" y="215"/>
      <point x="1134" y="343" type="curve" smooth="yes"/>
      <point x="1030" y="548"/>
      <point x="922" y="775"/>
      <point x="814" y="965" type="curve"/>
      <point x="567" y="771" type="line"/>
    </contour>
    <contour>
      <point x="440" y="375" type="line"/>
      <point x="1480" y="1530" type="line"/>
      <point x="1076" y="1530" type="line"/>
      <point x="447" y="738" type="line"/>
    </contour>
    <contour>
      <point x="611" y="-168" type="move" name="btm"/>
    </contour>
    <contour>
      <point x="1042" y="1702" type="move" name="top"/>
    </contour>
  </outline>
</glyph>
<glyph name="O" format="1">
  <advance width="1394"/>
  <unicode hex="004F"/>
  <outline>
    <contour>
      <point x="618" y="-16" type="curve" smooth="yes"/>
      <point x="1084" y="-16"/>
      <point x="1364" y="425"/>
      <point x="1364" y="946" type="curve" smooth="yes"/>
      <point x="1364" y="1272"/>
      <point x="1183" y="1546"/>
      <point x="821" y="1546" type="curve" smooth="yes"/>
      <point x="349" y="1546"/>
      <point x="66" y="1100"/>
      <point x="66" y="578" type="curve" smooth="yes"/>
      <point x="66" y="253"/>
      <point x="249" y="-16"/>
    </contour>
    <contour>
      <point x="646" y="250" type="curve" smooth="yes"/>
      <point x="506" y="250"/>
      <point x="430" y="331"/>
      <point x="430" y="596" type="curve" smooth="yes"/>
      <point x="430" y="901"/>
      <point x="560" y="1280"/>
      <point x="783" y="1280" type="curve" smooth="yes"/>
      <point x="924" y="1280"/>
      <point x="1000" y="1200"/>
      <point x="1000" y="935" type="curve" smooth="yes"/>
      <point x="1000" y="620"/>
      <point x="869" y="250"/>
    </contour>
    <contour>
      <point x="635" y="-170" type="move" name="btm"/>
    </contour>
    <contour>
      <point x="858" y="1700" type="move" name="top"/>
    </contour>
  </outline>
</glyph>
<glyph name="P" format="1">
  <advance width="1298"/>
  <unicode hex="0050"/>
  <outline>
    <contour>
      <point x="72" y="0" type="line"/>
      <point x="426" y="0" type="line"/>
      <point x="496" y="489" type="line"/>
      <point x="515" y="489"/>
      <point x="587" y="487"/>
      <point x="657" y="487" type="curve" smooth="yes"/>
      <point x="1081" y="487"/>
      <point x="1314" y="766"/>
      <point x="1313" y="1107" type="curve" smooth="yes"/>
      <point x="1312" y="1400"/>
      <point x="1119" y="1546"/>
      <point x="775" y="1546" type="curve" smooth="yes"/>
      <point x="642" y="1546"/>
      <point x="524" y="1530"/>
      <point x="446" y="1530" type="curve" smooth="yes"/>
      <point x="290" y="1530" type="line"/>
    </contour>
    <contour>
      <point x="534" y="764" type="curve"/>
      <point x="611" y="1290" type="line"/>
      <point x="640" y="1295"/>
      <point x="685" y="1300"/>
      <point x="711" y="1300" type="curve" smooth="yes"/>
      <point x="911" y="1300"/>
      <point x="972" y="1219"/>
      <point x="964" y="1076" type="curve" smooth="yes"/>
      <point x="952" y="871"/>
      <point x="855" y="752"/>
      <point x="663" y="752" type="curve" smooth="yes"/>
      <point x="615" y="752"/>
      <point x="558" y="757"/>
    </contour>
    <contour>
      <point x="300" y="-170" type="move" name="btm"/>
    </contour>
    <contour>
      <point x="797" y="1700" type="move" name="top"/>
    </contour>
  </outline>
</glyph>
<glyph name="Q" format="1">
  <advance width="1395"/>
  <unicode hex="0051"/>
  <outline>
    <contour>
      <point x="502" y="8" type="line"/>
      <point x="382" y="-333"/>
      <point x="636" y="-420"/>
      <point x="872" y="-420" type="curve" smooth="yes"/>
      <point x="999" y="-420"/>
      <point x="1198" y="-374"/>
      <point x="1257" y="-318" type="curve"/>
      <point x="1257" y="-115" type="line"/>
      <point x="1187" y="-135"/>
      <point x="1074" y="-141"/>
      <point x="946" y="-141" type="curve" smooth="yes"/>
      <point x="790" y="-141"/>
      <point x="694" y="-121"/>
      <point x="717" y="5" type="curve"/>
      <point x="595" y="68" type="line"/>
    </contour>
    <component base="O"/>
    <contour>
      <point x="737" y="-168" type="move" name="btm"/>
    </contour>
    <contour>
      <point x="988" y="1700" type="move" name="top"/>
    </contour>
  </outline>
</glyph>
<glyph name="W" format="1">
  <advance width="1803"/>
  <unicode hex="0057"/>
  <outline>
    <contour>
      <point x="282" y="0" type="line"/>
      <point x="657" y="0" type="line"/>
      <point x="857" y="546" type="line"/>
      <point x="963" y="837" type="line"/>
      <point x="910" y="789" type="line"/>
      <point x="936" y="546" type="line"/>
      <point x="993" y="0" type="line"/>
      <point x="1406" y="0" type="line"/>
      <point x="2001" y="1530" type="line"/>
      <point x="1637" y="1530" type="line"/>
      <point x="1303" y="550" type="line"/>
      <point x="1250" y="328" type="line"/>
      <point x="1227" y="550" type="line"/>
      <point x="1167" y="1530" type="line"/>
      <point x="822" y="1530" type="line"/>
      <point x="869" y="1096" type="line"/>
      <point x="889" y="1266" type="line"/>
      <point x="601" y="550" type="line"/>
      <point x="533" y="328" type="line"/>
      <point x="513" y="550" type="line"/>
      <point x="454" y="1530" type="line"/>
      <point x="97" y="1530" type="line"/>
    </contour>
    <contour>
      <point x="921" y="-170" type="move" name="btm"/>
    </contour>
    <contour>
      <point x="1008" y="1700" type="move" name="top"/>
    </contour>
  </outline>
</glyph>
<glyph name="grave" format="1">
  <advance width="546"/>
  <unicode hex="0060"/>
  <outline>
    <contour>
      <point x="408" y="1226" type="curve"/>
      <point x="532" y="1325" type="line"/>
      <point x="198" y="1774" type="line"/>
      <point x="-11" y="1574" type="line"/>
      <point x="25" y="1506"/>
      <point x="287" y="1272"/>
    </contour>
    <contour>
      <point x="431" y="1255" type="move" name="_top"/>
    </contour>
  </outline>
</glyph>
<glyph name="c" format="1">
  <advance width="956"/>
  <unicode hex="0063"/>
  <outline>
    <contour>
      <point x="74" y="442" type="curve" smooth="yes"/>
      <point x="74" y="225"/>
      <point x="179" y="-16"/>
      <point x="488" y="-16" type="curve" smooth="yes"/>
      <point x="718" y="-16"/>
      <point x="852" y="100"/>
      <point x="908" y="185" type="curve"/>
      <point x="819" y="356" type="line"/>
      <point x="776" y="308"/>
      <point x="668" y="241"/>
      <point x="584" y="241" type="curve" smooth="yes"/>
      <point x="471" y="241"/>
      <point x="438" y="324"/>
      <point x="438" y="498" type="curve" smooth="yes"/>
      <point x="438" y="759"/>
      <point x="547" y="878"/>
      <point x="668" y="878" type="curve" smooth="yes"/>
      <point x="746" y="878"/>
      <point x="848" y="790"/>
      <point x="867" y="771" type="curve"/>
      <point x="953" y="1113" type="line"/>
      <point x="893" y="1139"/>
      <point x="766" y="1156"/>
      <point x="695" y="1156" type="curve" smooth="yes"/>
      <point x="336" y="1156"/>
      <point x="74" y="862"/>
    </contour>
    <contour>
      <point x="509" y="-170" type="move" name="btm"/>
    </contour>
    <contour>
      <point x="732" y="1255" type="move" name="top"/>
    </contour>
  </outline>
</glyph>
<glyph name="f" format="1">
  <advance width="765"/>
  <unicode hex="0066"/>
  <outline>
    <contour>
      <point x="110" y="0" type="line"/>
      <point x="458" y="0" type="line"/>
      <point x="458" y="3"/>
      <point x="451" y="-54"/>
      <point x="585" y="924" type="curve"/>
      <point x="772" y="924" type="line"/>
      <point x="799" y="1140" type="line"/>
      <point x="610" y="1140" type="line"/>
      <point x="638" y="1299" type="line" smooth="yes"/>
      <point x="662" y="1433"/>
      <point x="712" y="1453"/>
      <point x="768" y="1454" type="curve" smooth="yes"/>
      <point x="825" y="1455"/>
      <point x="882" y="1417"/>
      <point x="893" y="1406" type="curve"/>
      <point x="955" y="1644" type="line"/>
      <point x="901" y="1666"/>
      <point x="832" y="1670"/>
      <point x="776" y="1670" type="curve" smooth="yes"/>
      <point x="506" y="1670"/>
      <point x="322" y="1493"/>
      <point x="286" y="1245" type="curve" smooth="yes"/>
      <point x="267" y="1140" type="line"/>
      <point x="156" y="1140" type="line"/>
      <point x="115" y="924" type="line"/>
      <point x="237" y="924" type="line"/>
    </contour>
    <contour>
      <point x="482" y="1568" type="move" name="top"/>
    </contour>
  </outline>
</glyph>
<glyph name="l" format="1">
  <advance width="665"/>
  <unicode hex="006C"/>
  <outline>
    <contour>
      <point x="83" y="0" type="line"/>
      <point x="440" y="0" type="line"/>
      <point x="662" y="1634" type="line"/>
      <point x="303" y="1634" type="line"/>
    </contour>
    <contour>
      <point x="667" y="1568" type="move" name="caron"/>
    </contour>
    <contour>
      <point x="193" y="-170" type="move" name="btm"/>
    </contour>
    <contour>
      <point x="365" y="1255" type="move" name="top"/>
    </contour>
    <contour>
      <point x="578" y="1881" type="move" name="cap"/>
    </contour>
  </outline>
</glyph>
<glyph name="m" format="1">
  <advance width="1965"/>
  <unicode hex="006D"/>
  <outline>
    <contour>
      <point x="513" y="668" type="line"/>
      <point x="570" y="799"/>
      <point x="675" y="887"/>
      <point x="754" y="887" type="curve" smooth="yes"/>
      <point x="808" y="887"/>
      <point x="839" y="862"/>
      <point x="835" y="788" type="curve" smooth="yes"/>
      <point x="832" y="723"/>
      <point x="821" y="626"/>
      <point x="807" y="510" type="curve" smooth="yes"/>
      <point x="786" y="336"/>
      <point x="757" y="135"/>
      <point x="737" y="0" type="curve"/>
      <point x="1094" y="0" type="line"/>
      <point x="1110" y="121"/>
      <point x="1141" y="328"/>
      <point x="1166" y="511" type="curve" smooth="yes"/>
      <point x="1188" y="672"/>
      <point x="1206" y="807"/>
      <point x="1206" y="854" type="curve" smooth="yes"/>
      <point x="1206" y="1078"/>
      <point x="1103" y="1156"/>
      <point x="937" y="1156" type="curve" smooth="yes"/>
      <point x="740" y="1156"/>
      <point x="583" y="1018"/>
      <point x="498" y="819" type="curve" smooth="yes"/>
      <point x="485" y="689" type="line"/>
    </contour>
    <contour>
      <point x="1170" y="668" type="line"/>
      <point x="1226" y="799"/>
      <point x="1321" y="887"/>
      <point x="1401" y="887" type="curve" smooth="yes"/>
      <point x="1454" y="887"/>
      <point x="1486" y="862"/>
      <point x="1482" y="788" type="curve" smooth="yes"/>
      <point x="1479" y="723"/>
      <point x="1467" y="626"/>
      <point x="1453" y="510" type="curve" smooth="yes"/>
      <point x="1431" y="336"/>
      <point x="1403" y="135"/>
      <point x="1384" y="0" type="curve"/>
      <point x="1740" y="0" type="line"/>
      <point x="1757" y="121"/>
      <point x="1787" y="328"/>
      <point x="1812" y="510" type="curve" smooth="yes"/>
      <point x="1834" y="671"/>
      <point x="1852" y="807"/>
      <point x="1852" y="854" type="curve" smooth="yes"/>
      <point x="1852" y="1078"/>
      <point x="1749" y="1156"/>
      <point x="1584" y="1156" type="curve" smooth="yes"/>
      <point x="1386" y="1156"/>
      <point x="1230" y="1018"/>
      <point x="1145" y="819" type="curve" smooth="yes"/>
      <point x="1141" y="689" type="line"/>
    </contour>
    <contour>
      <point x="76" y="0" type="line"/>
      <point x="433" y="0" type="line"/>
      <point x="560" y="912" type="line"/>
      <point x="576" y="1140" type="line"/>
      <point x="232" y="1140" type="line"/>
    </contour>
    <contour>
      <point x="1182" y="1255" type="move" name="top"/>
    </contour>
  </outline>
</glyph>
<glyph name="q" format="1">
  <advance width="1278"/>
  <unicode hex="0071"/>
  <outline>
    <contour>
      <point x="637" y="-492" type="line"/>
      <point x="987" y="-492" type="line"/>
      <point x="1207" y="1156" type="line"/>
      <point x="836" y="1062" type="line"/>
      <point x="750" y="431" type="line"/>
      <point x="760" y="353" type="line"/>
      <point x="702" y="0" type="line"/>
    </contour>
    <contour>
      <point x="406" y="-16" type="curve" smooth="yes"/>
      <point x="641" y="-16"/>
      <point x="758" y="267"/>
      <point x="779" y="379" type="curve"/>
      <point x="786" y="644" type="line"/>
      <point x="754" y="510"/>
      <point x="642" y="228"/>
      <point x="531" y="228" type="curve" smooth="yes"/>
      <point x="471" y="228"/>
      <point x="442" y="297"/>
      <point x="442" y="433" type="curve" smooth="yes"/>
      <point x="442" y="674"/>
      <point x="542" y="946"/>
      <point x="748" y="946" type="curve" smooth="yes"/>
      <point x="835" y="946"/>
      <point x="908" y="937"/>
      <point x="954" y="862" type="curve"/>
      <point x="1029" y="1110" type="line"/>
      <point x="970" y="1132"/>
      <point x="861" y="1156"/>
      <point x="773" y="1156" type="curve" smooth="yes"/>
      <point x="305" y="1156"/>
      <point x="70" y="781"/>
      <point x="70" y="412" type="curve" smooth="yes"/>
      <point x="70" y="182"/>
      <point x="154" y="-16"/>
    </contour>
    <contour>
      <point x="553" y="1618" type="move" name="cr"/>
    </contour>
    <contour>
      <point x="781" y="1255" type="move" name="top"/>
    </contour>
  </outline>
</glyph>
<glyph name="r" format="1">
  <advance width="905"/>
  <unicode hex="0072"/>
  <outline>
    <contour>
      <point x="538" y="719" type="line"/>
      <point x="610" y="781"/>
      <point x="674" y="807"/>
      <point x="761" y="807" type="curve" smooth="yes"/>
      <point x="794" y="807"/>
      <point x="847" y="799"/>
      <point x="861" y="781" type="curve"/>
      <point x="924" y="1142" type="line"/>
      <point x="914" y="1149"/>
      <point x="889" y="1156"/>
      <point x="853" y="1156" type="curve" smooth="yes"/>
      <point x="716" y="1156"/>
      <point x="605" y="1033"/>
      <point x="562" y="905" type="curve"/>
      <point x="467" y="815" type="line"/>
    </contour>
    <contour>
      <point x="78" y="0" type="line"/>
      <point x="435" y="0" type="line"/>
      <point x="562" y="912" type="line"/>
      <point x="578" y="1140" type="line"/>
      <point x="234" y="1140" type="line"/>
    </contour>
    <contour>
      <point x="235" y="-170" type="move" name="btm"/>
    </contour>
    <contour>
      <point x="623" y="1255" type="move" name="top"/>
    </contour>
  </outline>
</glyph>
<glyph name="s" format="1">
  <advance width="977"/>
  <unicode hex="0073"/>
  <outline>
    <contour>
      <point x="56" y="53" type="line"/>
      <point x="94" y="23"/>
      <point x="253" y="-16"/>
      <point x="387" y="-16" type="curve" smooth="yes"/>
      <point x="625" y="-16"/>
      <point x="861" y="67"/>
      <point x="861" y="331" type="curve" smooth="yes"/>
      <point x="861" y="465"/>
      <point x="794" y="541"/>
      <point x="660" y="644" type="curve" smooth="yes"/>
      <point x="554" y="736"/>
      <point x="494" y="761"/>
      <point x="494" y="830" type="curve" smooth="yes"/>
      <point x="494" y="872"/>
      <point x="531" y="909"/>
      <point x="619" y="909" type="curve" smooth="yes"/>
      <point x="716" y="909"/>
      <point x="818" y="858"/>
      <point x="855" y="820" type="curve"/>
      <point x="893" y="1119" type="line"/>
      <point x="865" y="1130"/>
      <point x="736" y="1156"/>
      <point x="626" y="1156" type="curve" smooth="yes"/>
      <point x="346" y="1156"/>
      <point x="163" y="1029"/>
      <point x="163" y="824" type="curve" smooth="yes"/>
      <point x="163" y="677"/>
      <point x="236" y="593"/>
      <point x="316" y="525" type="curve" smooth="yes"/>
      <point x="409" y="446"/>
      <point x="524" y="389"/>
      <point x="524" y="316" type="curve" smooth="yes"/>
      <point x="524" y="249"/>
      <point x="458" y="233"/>
      <point x="379" y="233" type="curve" smooth="yes"/>
      <point x="295" y="233"/>
      <point x="151" y="295"/>
      <point x="112" y="333" type="curve"/>
    </contour>
    <contour>
      <point x="389" y="-170" type="move" name="btm"/>
    </contour>
    <contour>
      <point x="633" y="1255" type="move" name="top"/>
    </contour>
  </outline>
</glyph>
<glyph name="u" format="1">
  <advance width="1292"/>
  <unicode hex="0075"/>
  <outline>
    <contour>
      <point x="749" y="0" type="line"/>
      <point x="1067" y="0" type="line"/>
      <point x="1223" y="1140" type="line"/>
      <point x="866" y="1140" type="line"/>
      <point x="744" y="266" type="line"/>
      <point x="758" y="266" type="line"/>
    </contour>
    <contour>
      <point x="121" y="235" type="curve" smooth="yes"/>
      <point x="124" y="42"/>
      <point x="256" y="-20"/>
      <point x="402" y="-20" type="curve" smooth="yes"/>
      <point x="615" y="-20"/>
      <point x="774" y="174"/>
      <point x="806" y="309" type="curve"/>
      <point x="817" y="534" type="line"/>
      <point x="779" y="409"/>
      <point x="659" y="234"/>
      <point x="557" y="234" type="curve" smooth="yes"/>
      <point x="521" y="234"/>
      <point x="488" y="266"/>
      <point x="488" y="332" type="curve" smooth="yes"/>
      <point x="488" y="380"/>
      <point x="502" y="492"/>
      <point x="515" y="589" type="curve" smooth="yes"/>
      <point x="585" y="1140" type="line"/>
      <point x="232" y="1140" type="line"/>
      <point x="157" y="594" type="line" smooth="yes"/>
      <point x="139" y="470"/>
      <point x="120" y="329"/>
    </contour>
    <contour>
      <point x="766" y="1255" type="move" name="top"/>
    </contour>
    <contour>
      <point x="1181" y="99" type="move" name="bottom"/>
    </contour>
  </outline>
</glyph>
<glyph name="x" format="1">
  <advance width="1053"/>
  <unicode hex="0078"/>
  <outline>
    <contour>
      <point x="263" y="0" type="line"/>
      <point x="535" y="419" type="line"/>
      <point x="670" y="503" type="line"/>
      <point x="1133" y="1140" type="line"/>
      <point x="777" y="1140" type="line"/>
      <point x="494" y="683" type="line"/>
      <point x="360" y="619" type="line"/>
      <point x="-105" y="0" type="line"/>
    </contour>
    <contour>
      <point x="413" y="481" type="line"/>
      <point x="625" y="0" type="line"/>
      <point x="1033" y="0" type="line"/>
      <point x="643" y="676" type="line"/>
      <point x="454" y="1140" type="line"/>
      <point x="46" y="1140" type="line"/>
    </contour>
    <contour>
      <point x="527" y="1255" type="move" name="top"/>
    </contour>
  </outline>
</glyph>
<glyph name="braceleft" format="1">
  <advance width="1024"/>
  <unicode hex="007B"/>
  <outline>
    <contour>
      <point x="181" y="-92" type="curve"/>
      <point x="180" y="-202"/>
      <point x="230" y="-272"/>
      <point x="376" y="-272" type="curve" smooth="yes"/>
      <point x="514" y="-272"/>
      <point x="649" y="-231"/>
      <point x="741" y="-195" type="curve"/>
      <point x="741" y="-195"/>
      <point x="760" y="-45"/>
      <point x="763" y="-30" type="curve"/>
      <point x="488" y="-30" type="line"/>
      <point x="580" y="562" type="line" smooth="yes"/>
      <point x="589" y="623"/>
      <point x="569" y="640"/>
      <point x="539" y="671" type="curve" smooth="yes"/>
      <point x="510" y="701"/>
      <point x="408" y="740"/>
      <point x="349" y="771" type="curve"/>
      <point x="349" y="771"/>
      <point x="525" y="829"/>
      <point x="554" y="846" type="curve" smooth="yes"/>
      <point x="607" y="879"/>
      <point x="634" y="906"/>
      <point x="642" y="960" type="curve" smooth="yes"/>
      <point x="736" y="1579" type="line"/>
      <point x="1012" y="1579" type="line"/>
      <point x="1043" y="1755" type="line"/>
      <point x="1043" y="1755"/>
      <point x="823" y="1812"/>
      <point x="713" y="1812" type="curve" smooth="yes"/>
      <point x="535" y="1812"/>
      <point x="461" y="1748"/>
      <point x="428" y="1550" type="curve" smooth="yes"/>
      <point x="340" y="1012" type="line"/>
      <point x="336" y="989"/>
      <point x="310" y="958"/>
      <point x="275" y="939" type="curve" smooth="yes"/>
      <point x="223" y="912"/>
      <point x="148" y="900"/>
      <point x="83" y="884" type="curve"/>
      <point x="51" y="681" type="line"/>
      <point x="110" y="667"/>
      <point x="173" y="652"/>
      <point x="216" y="623" type="curve" smooth="yes"/>
      <point x="248" y="602"/>
      <point x="268" y="568"/>
      <point x="268" y="546" type="curve"/>
      <point x="268" y="546"/>
      <point x="182" y="-63"/>
    </contour>
  </outline>
</glyph>
<glyph name="dieresis" format="1">
  <advance width="817"/>
  <unicode hex="00A8"/>
  <outline>
    <contour>
      <point x="143" y="1338" type="curve" smooth="yes"/>
      <point x="273" y="1338"/>
      <point x="330" y="1429"/>
      <point x="332" y="1540" type="curve" smooth="yes"/>
      <point x="334" y="1620"/>
      <point x="273" y="1701"/>
      <point x="177" y="1701" type="curve" smooth="yes"/>
      <point x="64" y="1701"/>
      <point x="-5" y="1614"/>
      <point x="-7" y="1505" type="curve" smooth="yes"/>
      <point x="-9" y="1422"/>
      <point x="63" y="1338"/>
    </contour>
    <contour>
      <point x="615" y="1338" type="curve" smooth="yes"/>
      <point x="744" y="1338"/>
      <point x="804" y="1429"/>
      <point x="806" y="1540" type="curve" smooth="yes"/>
      <point x="808" y="1620"/>
      <point x="744" y="1701"/>
      <point x="648" y="1701" type="curve" smooth="yes"/>
      <point x="535" y="1701"/>
      <point x="469" y="1614"/>
      <point x="467" y="1505" type="curve" smooth="yes"/>
      <point x="465" y="1422"/>
      <point x="534" y="1338"/>
    </contour>
    <contour>
      <point x="374" y="1255" type="move" name="_top"/>
    </contour>
  </outline>
</glyph>
<glyph name="onehalf" format="1">
  <advance width="2560"/>
  <unicode hex="00BD"/>
  <outline>
    <contour>
      <point x="1458" y="-169" type="line"/>
      <point x="2306" y="-169" type="line"/>
      <point x="2323" y="77" type="line"/>
      <point x="1858" y="51" type="line"/>
      <point x="2136" y="201"/>
      <point x="2309" y="468"/>
      <point x="2309" y="643" type="curve" smooth="yes"/>
      <point x="2309" y="822"/>
      <point x="2166" y="932"/>
      <point x="1923" y="932" type="curve" smooth="yes"/>
      <point x="1713" y="932"/>
      <point x="1520" y="823"/>
      <point x="1462" y="743" type="curve"/>
      <point x="1574" y="598" type="line"/>
      <point x="1626" y="645"/>
      <point x="1720" y="696"/>
      <point x="1853" y="696" type="curve" smooth="yes"/>
      <point x="1925" y="696"/>
      <point x="1965" y="660"/>
      <point x="1965" y="585" type="curve" smooth="yes"/>
      <point x="1965" y="418"/>
      <point x="1551" y="93"/>
      <point x="1385" y="6" type="curve"/>
    </contour>
    <contour>
      <point x="444" y="546" type="line"/>
      <point x="749" y="546" type="line"/>
      <point x="897" y="1624" type="line"/>
      <point x="728" y="1645" type="line"/>
      <point x="677" y="1604"/>
      <point x="452" y="1501"/>
      <point x="312" y="1466" type="curve"/>
      <point x="325" y="1308" type="line"/>
      <point x="556" y="1360" type="line"/>
    </contour>
    <component base="fraction" xOffset="649"/>
  </outline>
</glyph>
<glyph name="threequarters" format="1">
  <advance width="2560"/>
  <unicode hex="00BE"/>
  <outline>
    <contour>
      <point x="1367" y="56" type="line"/>
      <point x="2366" y="56" type="line"/>
      <point x="2390" y="279" type="line"/>
      <point x="1626" y="252" type="line"/>
      <point x="1692" y="338" type="line"/>
      <point x="2137" y="1007" type="line"/>
      <point x="1924" y="1111" type="line"/>
      <point x="1856" y="1110" type="line"/>
      <point x="1306" y="184" type="line"/>
    </contour>
    <contour>
      <point x="1859" y="-237" type="line"/>
      <point x="2137" y="-237" type="line"/>
      <point x="2230" y="534" type="line"/>
      <point x="1963" y="511" type="line"/>
    </contour>
    <contour>
      <point x="68" y="622" type="line"/>
      <point x="145" y="573"/>
      <point x="308" y="541"/>
      <point x="441" y="541" type="curve" smooth="yes"/>
      <point x="725" y="541"/>
      <point x="957" y="688"/>
      <point x="957" y="927" type="curve" smooth="yes"/>
      <point x="957" y="1028"/>
      <point x="913" y="1145"/>
      <point x="743" y="1174" type="curve"/>
      <point x="871" y="1224"/>
      <point x="930" y="1327"/>
      <point x="930" y="1465" type="curve" smooth="yes"/>
      <point x="930" y="1556"/>
      <point x="874" y="1701"/>
      <point x="595" y="1701" type="curve" smooth="yes"/>
      <point x="451" y="1701"/>
      <point x="298" y="1662"/>
      <point x="184" y="1583" type="curve"/>
      <point x="259" y="1403" type="line"/>
      <point x="300" y="1433"/>
      <point x="371" y="1470"/>
      <point x="486" y="1470" type="curve" smooth="yes"/>
      <point x="581" y="1470"/>
      <point x="609" y="1406"/>
      <point x="609" y="1373" type="curve" smooth="yes"/>
      <point x="609" y="1300"/>
      <point x="546" y="1248"/>
      <point x="332" y="1195" type="curve"/>
      <point x="297" y="986" type="line"/>
      <point x="535" y="1045" type="line"/>
      <point x="598" y="1041"/>
      <point x="644" y="1008"/>
      <point x="644" y="939" type="curve" smooth="yes"/>
      <point x="644" y="810"/>
      <point x="510" y="755"/>
      <point x="376" y="753" type="curve" smooth="yes"/>
      <point x="270" y="751"/>
      <point x="166" y="778"/>
      <point x="112" y="813" type="curve"/>
    </contour>
    <component base="fraction" xOffset="649"/>
  </outline>
</glyph>
<glyph name="germandbls" format="1">
  <advance width="1329"/>
  <unicode hex="00DF"/>
  <outline>
    <contour>
      <point x="65" y="0" type="line"/>
      <point x="412" y="0" type="line"/>
      <point x="530" y="867" type="line" smooth="yes"/>
      <point x="574" y="1231"/>
      <point x="692" y="1364"/>
      <point x="822" y="1364" type="curve" smooth="yes"/>
      <point x="905" y="1364"/>
      <point x="956" y="1311"/>
      <point x="956" y="1247" type="curve" smooth="yes"/>
      <point x="956" y="1149"/>
      <point x="904" y="1080"/>
      <point x="822" y="1009" type="curve" smooth="yes"/>
      <point x="759" y="944"/>
      <point x="692" y="875"/>
      <point x="692" y="780" type="curve" smooth="yes"/>
      <point x="692" y="693"/>
      <point x="756" y="597"/>
      <point x="806" y="527" type="curve" smooth="yes"/>
      <point x="847" y="472"/>
      <point x="909" y="422"/>
      <point x="909" y="345" type="curve" smooth="yes"/>
      <point x="909" y="257"/>
      <point x="842" y="227"/>
      <point x="754" y="226" type="curve" smooth="yes"/>
      <point x="690" y="225"/>
      <point x="600" y="260"/>
      <point x="569" y="295" type="curve"/>
      <point x="545" y="31" type="line"/>
      <point x="590" y="6"/>
      <point x="667" y="-16"/>
      <point x="817" y="-16" type="curve" smooth="yes"/>
      <point x="1088" y="-16"/>
      <point x="1258" y="105"/>
      <point x="1258" y="332" type="curve" smooth="yes"/>
      <point x="1258" y="472"/>
      <point x="1194" y="566"/>
      <point x="1133" y="648" type="curve" smooth="yes"/>
      <point x="1066" y="737"/>
      <point x="1047" y="785"/>
      <point x="1047" y="829" type="curve" smooth="yes"/>
      <point x="1047" y="974"/>
      <point x="1284" y="979"/>
      <point x="1284" y="1283" type="curve" smooth="yes"/>
      <point x="1284" y="1477"/>
      <point x="1116" y="1585"/>
      <point x="873" y="1585" type="curve" smooth="yes"/>
      <point x="609" y="1585"/>
      <point x="278" y="1527"/>
      <point x="189" y="927" type="curve" smooth="yes"/>
    </contour>
  </outline>
</glyph>
<glyph name="divide" format="1">
  <advance width="1397"/>
  <unicode hex="00F7"/>
  <outline>
    <contour>
      <point x="224" y="653" type="line"/>
      <point x="1186" y="653" type="line"/>
      <point x="1220" y="916" type="line"/>
      <point x="260" y="918" type="line"/>
    </contour>
    <contour>
      <point x="760" y="1055" type="curve" smooth="yes"/>
      <point x="889" y="1055"/>
      <point x="973" y="1142"/>
      <point x="973" y="1273" type="curve" smooth="yes"/>
      <point x="973" y="1353"/>
      <point x="930" y="1422"/>
      <point x="812" y="1422" type="curve" smooth="yes"/>
      <point x="683" y="1422"/>
      <point x="604" y="1319"/>
      <point x="604" y="1207" type="curve" smooth="yes"/>
      <point x="604" y="1118"/>
      <point x="663" y="1055"/>
    </contour>
    <contour>
      <point x="648" y="143" type="curve" smooth="yes"/>
      <point x="777" y="143"/>
      <point x="861" y="230"/>
      <point x="861" y="361" type="curve" smooth="yes"/>
      <point x="861" y="441"/>
      <point x="818" y="510"/>
      <point x="700" y="510" type="curve" smooth="yes"/>
      <point x="571" y="510"/>
      <point x="492" y="407"/>
      <point x="492" y="295" type="curve" smooth="yes"/>
      <point x="492" y="206"/>
      <point x="551" y="143"/>
    </contour>
  </outline>
</glyph>
<glyph name="oslash" format="1">
  <advance width="1180"/>
  <unicode hex="00F8"/>
  <outline>
    <contour>
      <point x="137" y="-83" type="line"/>
      <point x="226" y="-132" type="line"/>
      <point x="368" y="95" type="line"/>
      <point x="431" y="164" type="line"/>
      <point x="809" y="894" type="line"/>
      <point x="914" y="1021" type="line"/>
      <point x="1048" y="1254" type="line"/>
      <point x="959" y="1303" type="line"/>
      <point x="835" y="1086" type="line"/>
      <point x="730" y="959" type="line"/>
      <point x="364" y="244" type="line"/>
      <point x="288" y="156" type="line"/>
    </contour>
    <contour>
      <point x="419" y="431" type="curve" smooth="yes"/>
      <point x="419" y="656"/>
      <point x="486" y="944"/>
      <point x="648" y="944" type="curve" smooth="yes"/>
      <point x="718" y="944"/>
      <point x="758" y="880"/>
      <point x="758" y="707" type="curve" smooth="yes"/>
      <point x="758" y="472"/>
      <point x="695" y="200"/>
      <point x="529" y="200" type="curve" smooth="yes"/>
      <point x="460" y="200"/>
      <point x="419" y="268"/>
    </contour>
    <contour>
      <point x="65" y="471" type="curve" smooth="yes"/>
      <point x="65" y="210"/>
      <point x="183" y="-14"/>
      <point x="481" y="-14" type="curve" smooth="yes"/>
      <point x="903" y="-14"/>
      <point x="1116" y="310"/>
      <point x="1116" y="673" type="curve" smooth="yes"/>
      <point x="1116" y="934"/>
      <point x="999" y="1158"/>
      <point x="701" y="1158" type="curve" smooth="yes"/>
      <point x="279" y="1158"/>
      <point x="65" y="834"/>
    </contour>
  </outline>
</glyph>
<glyph name="aogonek" format="1">
  <advance width="1268"/>
  <unicode hex="0105"/>
  <outline>
    <contour>
      <point x="517" y="-316" type="curve" smooth="yes"/>
      <point x="517" y="-421"/>
      <point x="601" y="-510"/>
      <point x="730" y="-510" type="curve" smooth="yes"/>
      <point x="875" y="-510"/>
      <point x="978" y="-470"/>
      <point x="1059" y="-387" type="curve"/>
      <point x="1018" y="-212" type="line"/>
      <point x="962" y="-256"/>
      <point x="920" y="-277"/>
      <point x="865" y="-277" type="curve" smooth="yes"/>
      <point x="826" y="-277"/>
      <point x="798" y="-262"/>
      <point x="798" y="-205" type="curve" smooth="yes"/>
      <point x="798" y="-141"/>
      <point x="908" y="-56"/>
      <point x="1044" y="0" type="curve"/>
      <point x="923" y="21" type="line"/>
      <point x="811" y="7" type="line"/>
      <point x="722" y="-23"/>
      <point x="517" y="-162"/>
    </contour>
    <component base="a"/>
  </outline>
</glyph>
<glyph name="dcroat" format="1">
  <advance width="1274"/>
  <unicode hex="0111"/>
  <outline>
    <contour>
      <point x="642" y="1262" type="line"/>
      <point x="1384" y="1262" type="line"/>
      <point x="1400" y="1392" type="line"/>
      <point x="658" y="1392" type="line"/>
    </contour>
    <component base="d"/>
  </outline>
</glyph>
<glyph name="iogonek" format="1">
  <advance width="664"/>
  <unicode hex="012F"/>
  <outline>
    <contour>
      <point x="204" y="7" type="line"/>
      <point x="115" y="-23"/>
      <point x="-90" y="-162"/>
      <point x="-90" y="-316" type="curve" smooth="yes"/>
      <point x="-90" y="-421"/>
      <point x="-6" y="-510"/>
      <point x="123" y="-510" type="curve" smooth="yes"/>
      <point x="268" y="-510"/>
      <point x="371" y="-470"/>
      <point x="452" y="-387" type="curve"/>
      <point x="411" y="-212" type="line"/>
      <point x="355" y="-256"/>
      <point x="313" y="-277"/>
      <point x="258" y="-277" type="curve" smooth="yes"/>
      <point x="219" y="-277"/>
      <point x="191" y="-262"/>
      <point x="191" y="-205" type="curve" smooth="yes"/>
      <point x="191" y="-141"/>
      <point x="301" y="-56"/>
      <point x="437" y="0" type="curve"/>
      <point x="316" y="21" type="line"/>
    </contour>
    <component base="dotlessi"/>
    <component base="dotaccent" xOffset="335"/>
  </outline>
</glyph>
<glyph name="dotlessi" format="1">
  <advance width="664"/>
  <unicode hex="0131"/>
  <outline>
    <contour>
      <point x="80" y="0" type="line"/>
      <point x="437" y="0" type="line"/>
      <point x="595" y="1140" type="line"/>
      <point x="236" y="1140" type="line"/>
    </contour>
    <contour>
      <point x="446" y="1255" type="move" name="top"/>
    </contour>
    <contour>
      <point x="544" y="63" type="move" name="bottom"/>
    </contour>
  </outline>
</glyph>
<glyph name="lslash" format="1">
  <advance width="665"/>
  <unicode hex="0142"/>
  <outline>
    <contour>
      <point x="11" y="642" type="line"/>
      <point x="761" y="939" type="line"/>
      <point x="761" y="1146" type="line"/>
      <point x="11" y="839" type="line"/>
    </contour>
    <component base="l"/>
  </outline>
</glyph>
<glyph name="Uogonek" format="1">
  <advance width="1452"/>
  <unicode hex="0172"/>
  <outline>
    <contour>
      <point x="490" y="-316" type="curve" smooth="yes"/>
      <point x="490" y="-421"/>
      <point x="574" y="-510"/>
      <point x="703" y="-510" type="curve" smooth="yes"/>
      <point x="848" y="-510"/>
      <point x="951" y="-470"/>
      <point x="1032" y="-387" type="curve"/>
      <point x="991" y="-212" type="line"/>
      <point x="935" y="-256"/>
      <point x="893" y="-277"/>
      <point x="838" y="-277" type="curve" smooth="yes"/>
      <point x="799" y="-277"/>
      <point x="771" y="-262"/>
      <point x="771" y="-205" type="curve" smooth="yes"/>
      <point x="771" y="-141"/>
      <point x="924" y="-4"/>
      <point x="1045" y="68" type="curve"/>
      <point x="915" y="83" type="line"/>
      <point x="784" y="7" type="line"/>
      <point x="695" y="-23"/>
      <point x="490" y="-162"/>
    </contour>
    <component base="U" xOffset="12"/>
  </outline>
</glyph>
<glyph name="uogonek" format="1">
  <advance width="1292"/>
  <unicode hex="0173"/>
  <outline>
    <contour>
      <point x="540" y="-316" type="curve" smooth="yes"/>
      <point x="540" y="-421"/>
      <point x="624" y="-510"/>
      <point x="753" y="-510" type="curve" smooth="yes"/>
      <point x="898" y="-510"/>
      <point x="1001" y="-470"/>
      <point x="1082" y="-387" type="curve"/>
      <point x="1041" y="-212" type="line"/>
      <point x="985" y="-256"/>
      <point x="943" y="-277"/>
      <point x="888" y="-277" type="curve" smooth="yes"/>
      <point x="849" y="-277"/>
      <point x="821" y="-262"/>
      <point x="821" y="-205" type="curve" smooth="yes"/>
      <point x="821" y="-141"/>
      <point x="931" y="-56"/>
      <point x="1067" y="0" type="curve"/>
      <point x="946" y="21" type="line"/>
      <point x="834" y="7" type="line"/>
      <point x="745" y="-23"/>
      <point x="540" y="-162"/>
    </contour>
    <component base="u"/>
  </outline>
</glyph>
<glyph name="dotlessj" format="1">
  <advance width="664"/>
  <unicode hex="0237"/>
  <outline>
    <contour>
      <point x="89" y="65" type="line"/>
      <point x="59" y="-139"/>
      <point x="32" y="-322"/>
      <point x="-148" y="-322" type="curve" smooth="yes"/>
      <point x="-153" y="-322"/>
      <point x="-173" y="-322"/>
      <point x="-186" y="-313" type="curve"/>
      <point x="-274" y="-494" type="line"/>
      <point x="-244" y="-517"/>
      <point x="-172" y="-528"/>
      <point x="-94" y="-528" type="curve" smooth="yes"/>
      <point x="157" y="-528"/>
      <point x="390" y="-347"/>
      <point x="437" y="0" type="curve" smooth="yes"/>
      <point x="595" y="1140" type="line"/>
      <point x="236" y="1140" type="line"/>
    </contour>
    <contour>
      <point x="442" y="1255" type="move" name="top"/>
    </contour>
  </outline>
</glyph>
<glyph name="caron" format="1">
  <advance width="802"/>
  <unicode hex="02C7"/>
  <outline>
    <contour>
      <point x="277" y="1258" type="line"/>
      <point x="456" y="1258" type="line"/>
      <point x="828" y="1632" type="line"/>
      <point x="680" y="1699" type="line"/>
      <point x="404" y="1510" type="line"/>
      <point x="191" y="1700" type="line"/>
      <point x="65" y="1632" type="line"/>
    </contour>
    <contour>
      <point x="380" y="1255" type="move" name="_top"/>
    </contour>
  </outline>
</glyph>
<glyph name="firsttonechinese" format="1">
  <advance width="620"/>
  <unicode hex="02C9"/>
  <outline>
    <contour>
      <point x="56" y="1707" type="line"/>
      <point x="633" y="1707" type="line"/>
      <point x="633" y="1916" type="line"/>
      <point x="56" y="1916" type="line"/>
    </contour>
    <contour>
      <point x="299" y="1700" type="move" name="_top"/>
    </contour>
  </outline>
</glyph>
<glyph name="quoteleft" format="1">
  <advance width="709"/>
  <unicode hex="2018"/>
  <outline>
    <contour>
      <point x="388" y="887" type="curve"/>
      <point x="580" y="1043" type="line"/>
      <point x="585" y="1084" type="line"/>
      <point x="552" y="1117"/>
      <point x="523" y="1223"/>
      <point x="523" y="1301" type="curve" smooth="yes"/>
      <point x="523" y="1461"/>
      <point x="604" y="1573"/>
      <point x="673" y="1608" type="curve"/>
      <point x="675" y="1630" type="line"/>
      <point x="560" y="1771" type="line"/>
      <point x="416" y="1711"/>
      <point x="206" y="1523"/>
      <point x="206" y="1240" type="curve" smooth="yes"/>
      <point x="206" y="1049"/>
      <point x="308" y="932"/>
    </contour>
  </outline>
</glyph>
<glyph name="perthousand" format="1">
  <advance width="2910"/>
  <unicode hex="2030"/>
  <outline>
    <contour>
      <point x="2081" y="421" type="curve" smooth="yes"/>
      <point x="2081" y="197"/>
      <point x="2192" y="59"/>
      <point x="2406" y="59" type="curve" smooth="yes"/>
      <point x="2702" y="59"/>
      <point x="2889" y="317"/>
      <point x="2889" y="574" type="curve" smooth="yes"/>
      <point x="2889" y="783"/>
      <point x="2796" y="918"/>
      <point x="2565" y="918" type="curve" smooth="yes"/>
      <point x="2285" y="918"/>
      <point x="2081" y="670"/>
    </contour>
    <contour>
      <point x="2316" y="438" type="curve" smooth="yes"/>
      <point x="2316" y="545"/>
      <point x="2383" y="713"/>
      <point x="2521" y="713" type="curve" smooth="yes"/>
      <point x="2599" y="713"/>
      <point x="2644" y="648"/>
      <point x="2644" y="547" type="curve" smooth="yes"/>
      <point x="2644" y="443"/>
      <point x="2585" y="266"/>
      <point x="2449" y="266" type="curve" smooth="yes"/>
      <point x="2365" y="266"/>
      <point x="2316" y="337"/>
    </contour>
    <component base="percent"/>
  </outline>
</glyph>
<glyph name="guilsinglleft" format="1">
  <advance width="1190"/>
  <unicode hex="2039"/>
  <outline>
    <contour>
      <point x="174" y="530" type="line"/>
      <point x="830" y="132" type="line"/>
      <point x="940" y="304" type="line"/>
      <point x="576" y="605" type="line"/>
      <point x="1006" y="911" type="line"/>
      <point x="948" y="1116" type="line"/>
      <point x="206" y="720" type="line"/>
    </contour>
  </outline>
</glyph>
<glyph name="franc" format="1">
  <advance width="1268"/>
  <unicode hex="20A3"/>
  <outline>
    <contour>
      <point x="-37" y="205" type="line"/>
      <point x="-4" y="433" type="line"/>
      <point x="215" y="433" type="line"/>
      <point x="369" y="1530" type="line"/>
      <point x="1211" y="1530" type="line"/>
      <point x="1175" y="1281" type="line"/>
      <point x="654" y="1286" type="line"/>
      <point x="598" y="880" type="line"/>
      <point x="1035" y="886" type="line"/>
      <point x="1004" y="622" type="line"/>
      <point x="563" y="631" type="line"/>
      <point x="535" y="433" type="line"/>
      <point x="835" y="433" type="line"/>
      <point x="802" y="205" type="line"/>
      <point x="503" y="205" type="line"/>
      <point x="475" y="0" type="line"/>
      <point x="155" y="0" type="line"/>
      <point x="183" y="205" type="line"/>
    </contour>
  </outline>
</glyph>
<glyph name="uni20A6" format="1">
  <advance width="1898"/>
  <unicode hex="20A6"/>
  <outline>
    <contour>
      <point x="123" y="973" type="line"/>
      <point x="143" y="1120" type="line"/>
      <point x="384" y="1120" type="line"/>
      <point x="441" y="1522" type="line"/>
      <point x="732" y="1522" type="line"/>
      <point x="928" y="1120" type="line"/>
      <point x="1356" y="1120" type="line"/>
      <point x="1413" y="1522" type="line"/>
      <point x="1725" y="1522" type="line"/>
      <point x="1668" y="1120" type="line"/>
      <point x="1915" y="1120" type="line"/>
      <point x="1895" y="973" type="line"/>
      <point x="1648" y="973" type="line"/>
      <point x="1588" y="545" type="line"/>
      <point x="1813" y="545" type="line"/>
      <point x="1792" y="398" type="line"/>
      <point x="1567" y="398" type="line"/>
      <point x="1512" y="0" type="line"/>
      <point x="1208" y="0" type="line"/>
      <point x="1018" y="398" type="line"/>
      <point x="595" y="398" type="line"/>
      <point x="540" y="0" type="line"/>
      <point x="228" y="0" type="line"/>
      <point x="283" y="398" type="line"/>
      <point x="29" y="398" type="line"/>
      <point x="50" y="545" type="line"/>
      <point x="304" y="545" type="line"/>
      <point x="364" y="973" type="line"/>
    </contour>
    <contour>
      <point x="676" y="1120" type="line"/>
      <point x="663" y="1146" type="line"/>
      <point x="662" y="1120" type="line"/>
    </contour>
    <contour>
      <point x="1293" y="545" type="line"/>
      <point x="1303" y="740" type="line"/>
      <point x="1336" y="973" type="line"/>
      <point x="1000" y="973" type="line"/>
      <point x="1167" y="632" type="line"/>
      <point x="1206" y="545" type="line"/>
    </contour>
    <contour>
      <point x="647" y="765" type="line"/>
      <point x="616" y="545" type="line"/>
      <point x="947" y="545" type="line"/>
      <point x="793" y="868" type="line"/>
      <point x="744" y="973" type="line"/>
      <point x="656" y="973" type="line"/>
    </contour>
    <contour>
      <point x="1271" y="398" type="line"/>
      <point x="1285" y="367" type="line"/>
      <point x="1286" y="398" type="line"/>
    </contour>
  </outline>
</glyph>
<glyph name="euro" format="1">
  <advance width="1389"/>
  <unicode hex="20AC"/>
  <outline>
    <contour>
      <point x="23" y="524" type="line"/>
      <point x="1068" y="524" type="line"/>
      <point x="1083" y="706" type="line"/>
      <point x="42" y="706" type="line"/>
    </contour>
    <contour>
      <point x="219" y="640" type="curve" smooth="yes"/>
      <point x="218" y="324"/>
      <point x="352" y="-16"/>
      <point x="778" y="-16" type="curve" smooth="yes"/>
      <point x="984" y="-16"/>
      <point x="1149" y="59"/>
      <point x="1220" y="139" type="curve"/>
      <point x="1150" y="340" type="line"/>
      <point x="1070" y="278"/>
      <point x="974" y="216"/>
      <point x="843" y="216" type="curve" smooth="yes"/>
      <point x="649" y="216"/>
      <point x="569" y="375"/>
      <point x="575" y="643" type="curve" smooth="yes"/>
      <point x="583" y="1008"/>
      <point x="740" y="1292"/>
      <point x="991" y="1292" type="curve" smooth="yes"/>
      <point x="1104" y="1292"/>
      <point x="1210" y="1251"/>
      <point x="1235" y="1223" type="curve"/>
      <point x="1309" y="1492" type="line"/>
      <point x="1231" y="1515"/>
      <point x="1161" y="1546"/>
      <point x="995" y="1546" type="curve" smooth="yes"/>
      <point x="554" y="1546"/>
      <point x="219" y="1179"/>
    </contour>
    <contour>
      <point x="68" y="860" type="line"/>
      <point x="1103" y="860" type="line"/>
      <point x="1122" y="1042" type="line"/>
      <point x="87" y="1042" type="line"/>
    </contour>
  </outline>
</glyph>
<glyph name="uni20B1" format="1">
  <advance width="1527"/>
  <unicode hex="20B1"/>
  <outline>
    <contour>
      <point x="169" y="1094" type="line"/>
      <point x="184" y="1201" type="line"/>
      <point x="337" y="1201" type="line"/>
      <point x="383" y="1530" type="line"/>
      <point x="530" y="1530" type="line" smooth="yes"/>
      <point x="613" y="1530"/>
      <point x="727" y="1546"/>
      <point x="856" y="1546" type="curve" smooth="yes"/>
      <point x="1156" y="1546"/>
      <point x="1334" y="1433"/>
      <point x="1369" y="1201" type="curve"/>
      <point x="1525" y="1201" type="line"/>
      <point x="1510" y="1094" type="line"/>
      <point x="1375" y="1094" type="line"/>
      <point x="1374" y="1027"/>
      <point x="1364" y="964"/>
      <point x="1345" y="901" type="curve"/>
      <point x="1494" y="901" type="line"/>
      <point x="1479" y="794" type="line"/>
      <point x="1303" y="794" type="line"/>
      <point x="1202" y="584"/>
      <point x="1000" y="429"/>
      <point x="720" y="429" type="curve" smooth="yes"/>
      <point x="644" y="429"/>
      <point x="571" y="430"/>
      <point x="550" y="433" type="curve"/>
      <point x="490" y="0" type="line"/>
      <point x="170" y="0" type="line"/>
      <point x="280" y="794" type="line"/>
      <point x="138" y="794" type="line"/>
      <point x="153" y="901" type="line"/>
      <point x="295" y="901" type="line"/>
      <point x="322" y="1094" type="line"/>
    </contour>
    <contour>
      <point x="672" y="1309" type="curve"/>
      <point x="656" y="1201" type="line"/>
      <point x="1045" y="1201" type="line"/>
      <point x="1016" y="1280"/>
      <point x="942" y="1322"/>
      <point x="799" y="1322" type="curve" smooth="yes"/>
      <point x="766" y="1322"/>
      <point x="709" y="1317"/>
    </contour>
    <contour>
      <point x="1023" y="901" type="line"/>
      <point x="1044" y="958"/>
      <point x="1056" y="1022"/>
      <point x="1059" y="1090" type="curve" smooth="yes"/>
      <point x="1059" y="1094" type="line"/>
      <point x="641" y="1094" type="line"/>
      <point x="614" y="901" type="line"/>
    </contour>
    <contour>
      <point x="584" y="682" type="line"/>
      <point x="610" y="674"/>
      <point x="678" y="670"/>
      <point x="726" y="670" type="curve" smooth="yes"/>
      <point x="831" y="670"/>
      <point x="911" y="718"/>
      <point x="967" y="794" type="curve"/>
      <point x="599" y="794" type="line"/>
    </contour>
  </outline>
</glyph>
<glyph name="uni20B5" format="1">
  <advance width="1451"/>
  <unicode hex="20B5"/>
  <outline>
    <contour>
      <point x="704" y="-344" type="line"/>
      <point x="580" y="-344" type="line"/>
      <point x="627" y="-9" type="line"/>
      <point x="287" y="42"/>
      <point x="171" y="352"/>
      <point x="171" y="642" type="curve" smooth="yes"/>
      <point x="171" y="1134"/>
      <point x="453" y="1482"/>
      <point x="843" y="1538" type="curve"/>
      <point x="882" y="1813" type="line"/>
      <point x="1005" y="1813" type="line"/>
      <point x="968" y="1546" type="line"/>
      <point x="1125" y="1543"/>
      <point x="1200" y="1514"/>
      <point x="1275" y="1492" type="curve"/>
      <point x="1203" y="1247" type="line"/>
      <point x="1177" y="1275"/>
      <point x="1072" y="1315"/>
      <point x="946" y="1315" type="curve" smooth="yes"/>
      <point x="942" y="1315"/>
      <point x="939" y="1314"/>
      <point x="935" y="1314" type="curve"/>
      <point x="779" y="197" type="line"/>
      <point x="783" y="197" type="line" smooth="yes"/>
      <point x="930" y="197"/>
      <point x="1028" y="255"/>
      <point x="1114" y="317" type="curve"/>
      <point x="1180" y="133" type="line"/>
      <point x="1111" y="56"/>
      <point x="949" y="-10"/>
      <point x="750" y="-15" type="curve"/>
    </contour>
    <contour>
      <point x="495" y="652" type="curve"/>
      <point x="490" y="437"/>
      <point x="539" y="282"/>
      <point x="659" y="223" type="curve"/>
      <point x="808" y="1289" type="line"/>
      <point x="617" y="1212"/>
      <point x="500" y="967"/>
    </contour>
  </outline>
</glyph>
<glyph name="uni20B9" format="1">
  <advance width="1463"/>
  <unicode hex="20B9"/>
  <outline>
    <contour>
      <point x="1164" y="0" type="curve"/>
      <point x="773" y="0" type="line" smooth="yes"/>
      <point x="673" y="0"/>
      <point x="614" y="458"/>
      <point x="489" y="575" type="curve"/>
      <point x="447" y="575" type="line" smooth="yes"/>
      <point x="375" y="575"/>
      <point x="214" y="580"/>
      <point x="176" y="583" type="curve"/>
      <point x="211" y="772" type="line"/>
      <point x="254" y="767"/>
      <point x="342" y="764"/>
      <point x="470" y="764" type="curve" smooth="yes"/>
      <point x="639" y="764"/>
      <point x="758" y="829"/>
      <point x="811" y="976" type="curve"/>
      <point x="234" y="976" type="line"/>
      <point x="261" y="1144" type="line"/>
      <point x="842" y="1144" type="line"/>
      <point x="842" y="1156"/>
      <point x="843" y="1168"/>
      <point x="843" y="1181" type="curve" smooth="yes"/>
      <point x="843" y="1277"/>
      <point x="800" y="1330"/>
      <point x="732" y="1353" type="curve"/>
      <point x="270" y="1353" type="line"/>
      <point x="295" y="1524" type="line"/>
      <point x="1432" y="1524" type="line"/>
      <point x="1406" y="1353" type="line"/>
      <point x="1120" y="1353" type="line"/>
      <point x="1161" y="1304"/>
      <point x="1192" y="1237"/>
      <point x="1192" y="1152" type="curve" smooth="yes"/>
      <point x="1192" y="1144" type="line"/>
      <point x="1370" y="1144" type="line"/>
      <point x="1343" y="976" type="line"/>
      <point x="1170" y="976" type="line"/>
      <point x="1125" y="800"/>
      <point x="1010" y="667"/>
      <point x="837" y="598" type="curve"/>
      <point x="952" y="471"/>
      <point x="1015" y="145"/>
    </contour>
  </outline>
</glyph>
<glyph name="uni2113" format="1">
  <advance width="1387"/>
  <unicode hex="2113"/>
  <outline>
    <contour>
      <point x="234" y="33" type="line"/>
      <point x="788" y="356"/>
      <point x="1254" y="822"/>
      <point x="1250" y="1295" type="curve" smooth="yes"/>
      <point x="1248" y="1525"/>
      <point x="1130" y="1649"/>
      <point x="924" y="1649" type="curve" smooth="yes"/>
      <point x="476" y="1649"/>
      <point x="248" y="1018"/>
      <point x="248" y="570" type="curve" smooth="yes"/>
      <point x="248" y="114"/>
      <point x="530" y="-27"/>
      <point x="695" y="-27" type="curve" smooth="yes"/>
      <point x="1083" y="-27"/>
      <point x="1213" y="245"/>
      <point x="1285" y="383" type="curve"/>
      <point x="1024" y="484" type="line"/>
      <point x="960" y="359"/>
      <point x="876" y="241"/>
      <point x="744" y="241" type="curve" smooth="yes"/>
      <point x="575" y="241"/>
      <point x="567" y="449"/>
      <point x="567" y="544" type="curve" smooth="yes"/>
      <point x="567" y="912"/>
      <point x="734" y="1361"/>
      <point x="867" y="1361" type="curve" smooth="yes"/>
      <point x="917" y="1361"/>
      <point x="925" y="1307"/>
      <point x="926" y="1258" type="curve" smooth="yes"/>
      <point x="936" y="845"/>
      <point x="301" y="375"/>
      <point x="-40" y="192" type="curve"/>
    </contour>
    <contour>
      <point x="444" y="20" type="move" name="btm"/>
    </contour>
    <contour>
      <point x="447" y="1890" type="move" name="top"/>
    </contour>
  </outline>
</glyph>
<glyph name="numero" format="1">
  <advance width="2512"/>
  <unicode hex="2116"/>
  <outline>
    <contour>
      <point x="1567" y="926" type="curve" smooth="yes"/>
      <point x="1567" y="718"/>
      <point x="1671" y="512"/>
      <point x="1942" y="512" type="curve" smooth="yes"/>
      <point x="2320" y="512"/>
      <point x="2513" y="805"/>
      <point x="2513" y="1118" type="curve" smooth="yes"/>
      <point x="2513" y="1326"/>
      <point x="2409" y="1532"/>
      <point x="2138" y="1532" type="curve" smooth="yes"/>
      <point x="1760" y="1532"/>
      <point x="1567" y="1239"/>
    </contour>
    <contour>
      <point x="92" y="0" type="line"/>
      <point x="417" y="0" type="line"/>
      <point x="521" y="778" type="line"/>
      <point x="538" y="1075" type="line"/>
      <point x="643" y="776" type="line"/>
      <point x="958" y="0" type="line"/>
      <point x="1261" y="0" type="line"/>
      <point x="1454" y="1530" type="line"/>
      <point x="1126" y="1530" type="line"/>
      <point x="1039" y="772" type="line"/>
      <point x="1018" y="510" type="line"/>
      <point x="930" y="768" type="line"/>
      <point x="611" y="1530" type="line"/>
      <point x="285" y="1530" type="line"/>
    </contour>
    <contour>
      <point x="1879" y="901" type="curve" smooth="yes"/>
      <point x="1879" y="1112"/>
      <point x="1936" y="1348"/>
      <point x="2090" y="1348" type="curve" smooth="yes"/>
      <point x="2164" y="1348"/>
      <point x="2196" y="1272"/>
      <point x="2196" y="1135" type="curve" smooth="yes"/>
      <point x="2196" y="923"/>
      <point x="2146" y="697"/>
      <point x="1987" y="697" type="curve" smooth="yes"/>
      <point x="1914" y="697"/>
      <point x="1879" y="773"/>
    </contour>
    <contour>
      <point x="1518" y="0" type="line"/>
      <point x="2371" y="0" type="line"/>
      <point x="2389" y="207" type="line"/>
      <point x="1536" y="207" type="line"/>
    </contour>
  </outline>
</glyph>
<glyph name="Ohm" format="1">
  <advance width="1659"/>
  <unicode hex="2126"/>
  <outline>
    <contour>
      <point x="550" y="118" type="curve"/>
      <point x="623" y="0" type="line"/>
      <point x="713" y="189" type="line"/>
      <point x="603" y="265"/>
      <point x="500" y="566"/>
      <point x="500" y="794" type="curve" smooth="yes"/>
      <point x="500" y="1155"/>
      <point x="675" y="1269"/>
      <point x="882" y="1269" type="curve" smooth="yes"/>
      <point x="1034" y="1269"/>
      <point x="1208" y="1172"/>
      <point x="1208" y="887" type="curve" smooth="yes"/>
      <point x="1208" y="616"/>
      <point x="1065" y="293"/>
      <point x="867" y="189" type="curve"/>
      <point x="937" y="0" type="line"/>
      <point x="1011" y="100" type="line"/>
      <point x="1367" y="293"/>
      <point x="1545" y="676"/>
      <point x="1545" y="967" type="curve" smooth="yes"/>
      <point x="1545" y="1365"/>
      <point x="1274" y="1545"/>
      <point x="919" y="1545" type="curve" smooth="yes"/>
      <point x="437" y="1545"/>
      <point x="176" y="1314"/>
      <point x="176" y="839" type="curve" smooth="yes"/>
      <point x="176" y="570"/>
      <point x="330" y="275"/>
    </contour>
    <contour>
      <point x="68" y="0" type="line"/>
      <point x="623" y="0" type="line"/>
      <point x="521" y="252" type="line"/>
      <point x="101" y="252" type="line"/>
    </contour>
    <contour>
      <point x="937" y="0" type="line"/>
      <point x="1503" y="0" type="line"/>
      <point x="1530" y="252" type="line"/>
      <point x="1017" y="252" type="line"/>
    </contour>
  </outline>
</glyph>
<glyph name="Delta" format="1">
  <advance width="1407"/>
  <unicode hex="2206"/>
  <outline>
    <contour>
      <point x="-54" y="22" type="line"/>
      <point x="-42" y="0" type="line"/>
      <point x="1294" y="0" type="line"/>
      <point x="1311" y="27" type="line"/>
      <point x="742" y="1508" type="line"/>
      <point x="710" y="1508" type="line"/>
    </contour>
    <contour>
      <point x="392" y="288" type="line"/>
      <point x="688" y="896" type="line"/>
      <point x="908" y="288" type="line"/>
    </contour>
  </outline>
</glyph>
<glyph name="product" format="1">
  <advance width="1716"/>
  <unicode hex="220F"/>
  <outline>
    <contour>
      <point x="393" y="-172" type="line"/>
      <point x="770" y="-172" type="line"/>
      <point x="770" y="1245" type="line"/>
      <point x="1138" y="1245" type="line"/>
      <point x="1138" y="-172" type="line"/>
      <point x="1514" y="-172" type="line"/>
      <point x="1514" y="1245" type="line"/>
      <point x="1745" y="1246" type="line"/>
      <point x="1745" y="1522" type="line"/>
      <point x="168" y="1522" type="line"/>
      <point x="168" y="1246" type="line"/>
      <point x="393" y="1245" type="line"/>
    </contour>
  </outline>
</glyph>
<glyph name="uni2215" format="1">
  <advance width="854"/>
  <unicode hex="2215"/>
  <outline>
    <contour>
      <point x="130" y="-362" type="line"/>
      <point x="993" y="1597" type="line"/>
      <point x="719" y="1597" type="line"/>
      <point x="-142" y="-362" type="line"/>
    </contour>
  </outline>
</glyph>
<glyph name="radical" format="1">
  <advance width="1647"/>
  <unicode hex="221A"/>
  <outline>
    <contour>
      <point x="225" y="294" type="line"/>
      <point x="392" y="378" type="line"/>
      <point x="703" y="-354" type="line"/>
      <point x="1020" y="-354" type="line"/>
      <point x="1705" y="1870" type="line"/>
      <point x="1338" y="1870" type="line"/>
      <point x="858" y="76" type="line"/>
      <point x="644" y="716" type="line"/>
      <point x="382" y="716" type="line"/>
      <point x="99" y="575" type="line"/>
    </contour>
  </outline>
</glyph>
<glyph name="commaaccent" format="1">
  <advance width="371"/>
  <unicode hex="F6C3"/>
  <outline>
    <contour>
      <point x="83" y="-335" type="curve" smooth="yes"/>
      <point x="83" y="-407"/>
      <point x="37" y="-451"/>
      <point x="14" y="-464" type="curve"/>
      <point x="11" y="-490" type="line"/>
      <point x="112" y="-560" type="line"/>
      <point x="216" y="-541"/>
      <point x="341" y="-420"/>
      <point x="341" y="-249" type="curve" smooth="yes"/>
      <point x="341" y="-144"/>
      <point x="273" y="-56"/>
      <point x="182" y="-37" type="curve"/>
      <point x="26" y="-141" type="line"/>
      <point x="15" y="-234" type="line"/>
      <point x="55" y="-238"/>
      <point x="83" y="-285"/>
    </contour>
    <contour>
      <point x="154" y="-170" type="move" name="_btm"/>
    </contour>
  </outline>
</glyph>
<glyph name=".notdef" format="1">
  <advance width="1872"/>
  <outline>
    <contour>
      <point x="213" y="0" type="line"/>
      <point x="1629" y="0" type="line"/>
      <point x="1629" y="1416" type="line"/>
      <point x="213" y="1416" type="line"/>
    </contour>
    <contour>
      <point x="443" y="363" type="line"/>
      <point x="801" y="705" type="line"/>
      <point x="442" y="1068" type="line"/>
      <point x="565" y="1193" type="line"/>
      <point x="922" y="825" type="line"/>
      <point x="1274" y="1191" type="line"/>
      <point x="1402" y="1067" type="line"/>
      <point x="1039" y="709" type="line"/>
      <point x="1402" y="341" type="line"/>
      <point x="1280" y="219" type="line"/>
      <point x="918" y="587" type="line"/>
      <point x="571" y="219" type="line"/>
    </contour>
  </outline>
</glyph>
<glyph name="caron.cap" format="1">
  <advance width="800"/>
  <outline>
    <contour>
      <point x="267" y="1599" type="line"/>
      <point x="447" y="1599" type="line"/>
      <point x="818" y="1947" type="line"/>
      <point x="670" y="2014" type="line"/>
      <point x="383" y="1837" type="line"/>
      <point x="200" y="2014" type="line"/>
      <point x="55" y="1936" type="line"/>
    </contour>
    <contour>
      <point x="374" y="1700" type="move" name="_top"/>
    </contour>
  </outline>
</glyph>
<glyph name="caronvertical" format="1">
  <advance width="318"/>
  <outline>
    <contour>
      <point x="200" y="1065" type="line"/>
      <point x="351" y="1037" type="line"/>
      <point x="447" y="1138"/>
      <point x="498" y="1337"/>
      <point x="498" y="1493" type="curve" smooth="yes"/>
      <point x="498" y="1573"/>
      <point x="485" y="1655"/>
      <point x="459" y="1682" type="curve"/>
      <point x="230" y="1634" type="line"/>
      <point x="211" y="1592" type="line"/>
      <point x="231" y="1562"/>
      <point x="235" y="1466"/>
      <point x="235" y="1391" type="curve" smooth="yes"/>
      <point x="235" y="1275"/>
      <point x="217" y="1153"/>
      <point x="194" y="1090" type="curve"/>
    </contour>
    <contour>
      <point x="147" y="1700" type="move" name="car"/>
    </contour>
  </outline>
</glyph>
<glyph name="four.numr" format="1">
  <advance width="1264"/>
  <outline>
    <contour>
      <point x="113" y="704" type="line"/>
      <point x="1112" y="704" type="line"/>
      <point x="1136" y="927" type="line"/>
      <point x="372" y="900" type="line"/>
      <point x="438" y="986" type="line"/>
      <point x="883" y="1655" type="line"/>
      <point x="670" y="1759" type="line"/>
      <point x="602" y="1758" type="line"/>
      <point x="52" y="832" type="line"/>
    </contour>
    <contour>
      <point x="605" y="411" type="line"/>
      <point x="883" y="411" type="line"/>
      <point x="976" y="1182" type="line"/>
      <point x="709" y="1159" type="line"/>
    </contour>
  </outline>
</glyph>
<glyph name="macron.cap" format="1">
  <advance width="620"/>
  <outline>
    <contour>
      <point x="36" y="1707" type="line"/>
      <point x="613" y="1707" type="line"/>
      <point x="633" y="1916" type="line"/>
      <point x="56" y="1916" type="line"/>
    </contour>
    <contour>
      <point x="299" y="1700" type="move" name="_top"/>
    </contour>
  </outline>
</glyph>
<glyph name="one.numr" format="1">
  <advance width="1020"/>
  <outline>
    <contour>
      <point x="414" y="546" type="line"/>
      <point x="719" y="546" type="line"/>
      <point x="867" y="1624" type="line"/>
      <point x="698" y="1645" type="line"/>
      <point x="647" y="1604"/>
      <point x="422" y="1501"/>
      <point x="282" y="1466" type="curve"/>
      <point x="295" y="1308" type="line"/>
      <point x="526" y="1360" type="line"/>
    </contour>
  </outline>
</glyph>
